<svg width="30" height="30" viewBox="0 0 30 30" fill="none" xmlns="http://www.w3.org/2000/svg">
<path d="M29.4141 12.2812H15.3008V18.082H23.3633C23.0156 19.957 21.961 21.543 20.3711 22.6055C19.0274 23.5039 17.3125 24.0352 15.2969 24.0352C11.3945 24.0352 8.09377 21.3984 6.91408 17.8555C6.6172 16.957 6.44533 15.9961 6.44533 15.0078C6.44533 14.0195 6.6172 13.0586 6.91408 12.1602C8.09767 8.62109 11.3985 5.98438 15.3008 5.98438C17.5 5.98438 19.4727 6.74219 21.0274 8.22656L25.3242 3.92578C22.7266 1.50391 19.3399 0.0195312 15.3008 0.0195312C9.44533 0.0195312 4.37892 3.37891 1.91408 8.27734C0.898453 10.3008 0.320328 12.5898 0.320328 15.0117C0.320328 17.4336 0.898453 19.7188 1.91408 21.7422C4.37892 26.6406 9.44533 30 15.3008 30C19.3477 30 22.7383 28.6562 25.2149 26.3672C28.0469 23.7578 29.6836 19.9141 29.6836 15.3477C29.6836 14.2852 29.5899 13.2656 29.4141 12.2812Z" fill="white"/>
</svg>
