<svg width="25" height="19" viewBox="0 0 25 19" fill="none" xmlns="http://www.w3.org/2000/svg">
<path d="M24.1719 9.23438C23.253 6.85754 21.6578 4.80204 19.5834 3.32194C17.5091 1.84184 15.0465 1.00201 12.5 0.90625C9.95353 1.00201 7.49093 1.84184 5.41657 3.32194C3.3422 4.80204 1.747 6.85754 0.828128 9.23438C0.766071 9.40602 0.766071 9.59398 0.828128 9.76562C1.747 12.1425 3.3422 14.198 5.41657 15.6781C7.49093 17.1582 9.95353 17.998 12.5 18.0938C15.0465 17.998 17.5091 17.1582 19.5834 15.6781C21.6578 14.198 23.253 12.1425 24.1719 9.76562C24.2339 9.59398 24.2339 9.40602 24.1719 9.23438ZM12.5 14.5781C11.4956 14.5781 10.5138 14.2803 9.67875 13.7223C8.84365 13.1643 8.19278 12.3712 7.80843 11.4433C7.42408 10.5154 7.32351 9.49437 7.51945 8.50931C7.71539 7.52425 8.19904 6.61941 8.90923 5.90922C9.61941 5.19903 10.5243 4.71539 11.5093 4.51945C12.4944 4.32351 13.5154 4.42407 14.4433 4.80842C15.3712 5.19278 16.1643 5.84365 16.7223 6.67875C17.2803 7.51384 17.5781 8.49564 17.5781 9.5C17.5761 10.8462 17.0404 12.1366 16.0885 13.0885C15.1366 14.0404 13.8462 14.5761 12.5 14.5781Z" fill="white"/>
</svg>
